<?xml version="1.0" standalone="no"?>
<!DOCTYPE svg PUBLIC "-//W3C//DTD SVG 20010904//EN"
 "http://www.w3.org/TR/2001/REC-SVG-20010904/DTD/svg10.dtd">
<svg version="1.0" xmlns="http://www.w3.org/2000/svg"
 width="200.000000pt" height="200.000000pt" viewBox="0 0 200.000000 200.000000"
 preserveAspectRatio="xMidYMid meet">
<metadata>
Created by potrace 1.16, written by Peter Selinger 2001-2019
</metadata>
<g transform="translate(0.000000,200.000000) scale(0.100000,-0.100000)"
fill="#000000" stroke="none">
<path d="M1382 1457 c-6 -7 -43 -30 -81 -51 -139 -77 -184 -137 -174 -233 5
-49 7 -53 32 -53 23 1 37 19 114 143 48 78 97 157 108 175 21 32 21 44 1 19z"/>
<path d="M1145 833 c29 -16 317 -146 362 -164 18 -7 11 6 -29 59 -102 132 -83
122 -232 122 -127 -1 -130 -1 -101 -17z"/>
<path d="M726 684 c-66 -81 -113 -145 -105 -142 100 41 188 82 207 96 21 16
23 24 20 106 l-3 88 -119 -148z"/>
</g>
</svg>
