<svg id="svg" version="1.1" xmlns="http://www.w3.org/2000/svg" xmlns:xlink="http://www.w3.org/1999/xlink" width="400" height="400" viewBox="0, 0, 400,400"><g id="svgg"><path id="path0" d="M276.390 73.427 C 276.148 74.063,275.825 74.677,275.671 74.792 C 275.518 74.906,274.880 75.791,274.253 76.757 C 272.393 79.624,262.837 88.800,261.711 88.800 C 261.430 88.800,261.200 88.975,261.200 89.190 C 261.200 89.404,260.650 89.864,259.979 90.211 C 259.307 90.558,258.452 91.115,258.079 91.448 C 256.978 92.430,253.838 94.385,253.349 94.393 C 253.101 94.397,252.653 94.695,252.355 95.055 C 252.056 95.415,251.089 96.045,250.206 96.456 C 246.806 98.036,237.180 103.505,233.760 105.800 C 225.254 111.508,221.004 116.005,221.625 118.642 C 222.316 121.576,222.813 133.797,222.551 141.400 C 222.312 148.342,222.724 164.354,223.100 162.700 C 223.191 162.296,223.627 162.000,224.129 162.000 C 224.978 162.000,230.556 156.533,235.400 150.952 C 236.500 149.685,237.895 148.116,238.500 147.465 C 239.105 146.814,239.600 146.137,239.600 145.961 C 239.600 145.785,240.500 144.560,241.600 143.238 C 242.700 141.917,243.600 140.680,243.600 140.490 C 243.600 140.300,244.050 139.753,244.600 139.275 C 245.150 138.797,245.600 138.165,245.600 137.872 C 245.600 137.579,246.050 136.917,246.600 136.400 C 247.150 135.883,247.600 135.228,247.600 134.944 C 247.600 134.660,248.114 133.837,248.741 133.114 C 249.369 132.391,250.102 131.383,250.369 130.874 C 250.760 130.130,250.968 130.041,251.428 130.423 C 252.255 131.110,252.130 133.070,251.200 134.000 C 250.760 134.440,250.400 135.250,250.400 135.800 C 250.400 136.350,250.081 137.119,249.690 137.510 C 249.300 137.900,248.750 138.989,248.468 139.931 C 248.186 140.872,247.706 141.738,247.402 141.855 C 247.098 141.971,246.738 142.573,246.602 143.192 C 246.466 143.811,246.005 144.634,245.577 145.021 C 245.150 145.407,244.800 145.952,244.800 146.231 C 244.800 146.510,244.350 147.273,243.800 147.927 C 243.250 148.581,242.800 149.316,242.800 149.560 C 242.800 149.805,242.350 150.397,241.800 150.875 C 241.250 151.353,240.800 151.979,240.800 152.265 C 240.800 152.743,239.975 153.812,237.758 156.210 C 237.295 156.711,236.799 157.425,236.656 157.798 C 236.513 158.171,236.037 158.570,235.598 158.685 C 235.159 158.799,234.800 159.203,234.800 159.581 C 234.800 159.959,234.305 160.730,233.700 161.296 C 233.095 161.861,231.250 163.698,229.600 165.377 C 227.950 167.057,226.195 168.533,225.700 168.659 C 225.205 168.784,224.800 169.115,224.800 169.394 C 224.800 169.674,224.528 170.128,224.195 170.404 C 221.642 172.523,232.398 174.518,235.065 172.420 C 235.610 171.991,236.899 171.516,237.928 171.364 C 238.975 171.210,240.298 170.672,240.931 170.144 C 241.553 169.625,242.311 169.200,242.617 169.200 C 242.922 169.200,243.363 168.842,243.597 168.405 C 243.832 167.967,244.471 167.497,245.018 167.360 C 245.565 167.222,246.335 166.700,246.729 166.199 C 247.123 165.698,247.795 165.222,248.223 165.140 C 248.663 165.056,249.055 164.603,249.128 164.096 C 249.198 163.603,249.477 163.200,249.748 163.200 C 250.147 163.200,253.125 159.152,255.000 156.063 C 255.220 155.700,255.760 154.863,256.199 154.202 C 257.117 152.821,258.162 150.990,258.751 149.730 C 258.974 149.252,260.517 146.844,262.179 144.379 C 263.840 141.915,265.200 139.640,265.200 139.323 C 265.200 138.393,265.982 137.200,266.592 137.200 C 266.981 137.200,267.194 136.611,267.278 135.300 C 267.382 133.679,267.532 133.381,268.300 133.272 C 269.116 133.156,269.200 132.927,269.200 130.801 C 269.200 128.585,269.810 127.200,270.786 127.200 C 270.967 127.200,271.181 125.742,271.262 123.961 C 271.384 121.274,271.551 120.607,272.238 120.050 C 272.929 119.491,273.112 118.746,273.335 115.590 C 273.529 112.837,273.806 111.523,274.348 110.789 C 274.925 110.005,275.160 108.698,275.392 104.989 C 275.563 102.255,276.039 98.998,276.501 97.400 C 277.199 94.989,277.336 93.105,277.490 83.854 C 277.669 73.060,277.422 70.712,276.390 73.427 M99.380 103.139 C 98.938 103.532,93.148 104.255,87.400 104.633 C 85.200 104.778,83.095 105.056,82.721 105.251 C 82.348 105.446,80.657 105.870,78.963 106.195 C 75.134 106.927,75.049 107.016,77.645 107.572 C 78.800 107.820,80.007 108.243,80.327 108.511 C 80.647 108.780,81.559 109.276,82.354 109.614 C 84.847 110.674,87.305 112.294,93.400 116.894 C 96.276 119.065,107.134 130.436,108.200 132.393 C 109.386 134.570,119.665 145.360,124.000 148.978 C 126.526 151.087,128.489 152.417,133.200 155.215 C 135.172 156.386,140.942 158.681,144.200 159.590 C 149.576 161.090,163.587 160.736,166.200 159.035 C 166.640 158.748,168.031 158.215,169.290 157.849 C 172.250 156.989,172.452 156.563,171.989 152.161 C 171.783 150.202,171.611 146.680,171.607 144.333 C 171.600 139.772,171.420 138.800,170.588 138.800 C 170.298 138.800,169.553 138.375,168.931 137.856 C 167.875 136.975,166.593 136.185,164.050 134.848 C 163.472 134.545,162.640 133.985,162.200 133.604 C 161.760 133.223,160.829 132.720,160.132 132.487 C 159.435 132.254,158.490 131.690,158.032 131.232 C 157.574 130.774,156.840 130.400,156.400 130.400 C 155.960 130.400,155.249 130.049,154.821 129.621 C 154.393 129.193,153.303 128.643,152.401 128.400 C 151.498 128.157,150.664 127.711,150.548 127.409 C 150.432 127.107,149.637 126.741,148.780 126.597 C 147.924 126.452,146.792 125.995,146.266 125.580 C 145.739 125.166,144.518 124.702,143.554 124.549 C 142.326 124.354,141.440 123.890,140.600 122.999 C 139.940 122.300,139.045 121.599,138.611 121.442 C 137.950 121.203,137.918 121.097,138.411 120.785 C 139.260 120.248,140.501 120.316,141.411 120.949 C 141.845 121.251,143.405 121.574,144.877 121.667 C 146.579 121.774,147.818 122.071,148.277 122.482 C 148.675 122.838,149.900 123.251,151.000 123.400 C 152.100 123.550,153.458 123.993,154.017 124.387 C 154.577 124.780,155.837 125.237,156.817 125.402 C 157.798 125.567,159.109 126.129,159.731 126.651 C 160.353 127.173,161.227 127.600,161.673 127.600 C 162.119 127.600,163.019 128.050,163.673 128.600 C 164.327 129.150,165.227 129.600,165.673 129.600 C 166.119 129.600,167.019 130.050,167.673 130.600 C 168.327 131.150,169.199 131.600,169.611 131.600 C 170.023 131.600,170.525 131.894,170.726 132.253 C 171.395 133.448,171.673 130.166,171.377 124.576 C 171.069 118.765,171.243 117.352,172.300 117.076 C 172.685 116.975,172.275 116.872,171.389 116.846 C 170.315 116.815,169.550 116.533,169.093 116.000 C 168.716 115.560,168.146 115.200,167.827 115.200 C 167.507 115.200,166.627 114.835,165.871 114.389 C 165.115 113.943,162.396 112.872,159.829 112.010 C 157.262 111.147,154.586 110.093,153.881 109.667 C 153.177 109.241,150.530 108.224,148.000 107.407 C 145.470 106.591,143.148 105.715,142.841 105.461 C 142.533 105.208,140.823 104.910,139.041 104.800 C 136.162 104.622,135.756 104.499,135.405 103.700 L 135.010 102.800 117.385 102.800 C 107.691 102.800,99.589 102.952,99.380 103.139 M178.534 125.007 C 178.220 126.739,178.248 127.308,178.667 127.656 C 179.102 128.017,179.200 127.610,179.200 125.449 C 179.200 122.223,179.056 122.127,178.534 125.007 M160.136 174.697 C 157.183 174.818,156.810 174.925,156.227 175.816 C 155.749 176.545,155.226 176.800,154.209 176.800 C 153.278 176.800,152.514 177.122,151.836 177.800 C 151.286 178.350,150.391 178.800,149.846 178.800 C 149.124 178.800,148.821 179.043,148.728 179.700 C 148.646 180.278,148.278 180.646,147.700 180.728 C 147.205 180.798,146.800 181.119,146.800 181.441 C 146.800 181.763,146.185 182.390,145.433 182.834 C 144.681 183.277,143.751 184.126,143.367 184.720 C 142.983 185.314,141.887 186.700,140.931 187.800 C 138.595 190.488,133.265 197.019,131.791 199.000 C 131.136 199.880,130.308 200.820,129.950 201.088 C 129.038 201.772,126.800 205.338,126.800 206.107 C 126.800 206.463,126.403 206.801,125.900 206.872 C 125.156 206.978,124.965 207.312,124.800 208.800 C 124.636 210.274,124.441 210.623,123.721 210.725 C 122.979 210.831,122.823 211.144,122.721 212.725 C 122.618 214.321,122.466 214.619,121.700 214.728 C 120.911 214.840,120.800 215.090,120.800 216.758 C 120.800 218.270,120.595 218.853,119.800 219.600 C 119.115 220.244,118.800 220.966,118.800 221.896 C 118.800 223.534,118.184 224.800,117.386 224.800 C 116.959 224.800,116.800 225.283,116.800 226.574 C 116.800 228.544,116.250 230.309,115.430 230.967 C 115.131 231.208,114.798 232.529,114.680 233.937 C 114.536 235.672,114.221 236.748,113.686 237.337 C 113.127 237.954,112.829 239.051,112.641 241.187 C 112.486 242.952,112.099 244.588,111.694 245.187 C 111.275 245.808,110.831 247.762,110.548 250.236 C 110.294 252.456,109.808 254.811,109.467 255.470 C 108.798 256.764,107.753 266.476,108.204 267.207 C 108.593 267.835,108.939 267.608,110.561 265.656 C 111.359 264.696,113.763 262.495,115.905 260.764 C 121.094 256.572,121.791 256.053,122.660 255.735 C 123.067 255.586,123.909 255.044,124.531 254.532 C 125.153 254.019,125.893 253.600,126.177 253.600 C 126.460 253.600,127.121 253.265,127.646 252.855 C 128.171 252.445,129.050 251.972,129.600 251.803 C 130.150 251.633,131.061 251.171,131.624 250.774 C 132.188 250.378,133.178 249.925,133.824 249.768 C 134.471 249.612,135.630 249.158,136.400 248.761 C 138.480 247.687,141.126 246.550,143.600 245.668 C 144.810 245.237,146.610 244.589,147.600 244.228 C 149.171 243.656,156.089 240.270,159.629 238.341 C 167.833 233.870,176.955 224.529,180.663 216.800 C 184.828 208.118,184.825 208.053,180.139 203.352 C 175.161 198.360,173.497 195.347,172.323 189.200 C 171.667 185.762,171.001 185.517,168.520 187.800 C 168.042 188.240,167.167 188.960,166.576 189.400 C 165.985 189.840,164.848 190.762,164.051 191.449 C 163.253 192.135,162.094 193.125,161.477 193.649 C 160.859 194.172,159.397 195.545,158.229 196.700 C 157.060 197.855,155.832 198.800,155.499 198.800 C 155.166 198.800,154.796 199.173,154.676 199.630 C 154.557 200.086,154.103 200.553,153.667 200.667 C 153.231 200.781,152.781 201.231,152.667 201.667 C 152.553 202.103,152.086 202.557,151.630 202.676 C 151.173 202.796,150.800 203.171,150.800 203.510 C 150.800 203.850,149.855 205.167,148.700 206.438 C 147.545 207.708,145.791 209.659,144.803 210.774 C 143.815 211.888,142.785 212.800,142.516 212.800 C 142.246 212.800,141.772 213.283,141.463 213.874 C 140.912 214.924,140.895 214.929,140.625 214.078 C 140.361 213.246,140.588 212.599,142.126 209.800 C 142.489 209.140,143.057 208.025,143.389 207.322 C 143.721 206.619,144.223 205.899,144.505 205.722 C 144.786 205.545,145.242 204.950,145.517 204.400 C 146.108 203.219,147.645 201.019,148.903 199.556 C 149.396 198.981,150.520 197.645,151.400 196.585 C 153.811 193.682,158.242 189.200,158.701 189.200 C 158.924 189.200,159.201 188.841,159.315 188.402 C 159.430 187.963,159.856 187.479,160.262 187.327 C 160.668 187.174,161.180 186.827,161.400 186.556 C 161.835 186.018,166.662 182.069,169.046 180.300 C 169.862 179.695,170.756 179.200,171.033 179.200 C 171.667 179.200,172.122 177.223,171.790 175.903 C 171.512 174.795,169.412 174.329,165.400 174.485 C 164.300 174.528,161.931 174.623,160.136 174.697 M237.451 182.413 C 236.159 182.617,234.899 182.950,234.651 183.154 C 234.403 183.358,233.120 183.833,231.800 184.210 C 230.480 184.588,229.220 185.039,229.000 185.213 C 228.780 185.386,227.790 185.849,226.800 186.240 C 225.810 186.631,224.765 187.277,224.477 187.675 C 224.190 188.074,223.701 188.400,223.391 188.400 C 222.703 188.400,222.006 189.623,221.982 190.874 C 221.973 191.383,221.718 192.491,221.417 193.337 L 220.869 194.873 223.216 197.137 C 224.507 198.381,226.427 200.024,227.482 200.786 C 228.537 201.549,230.272 202.885,231.339 203.756 C 232.405 204.627,233.788 205.623,234.413 205.970 C 235.038 206.316,236.595 207.302,237.874 208.161 C 239.153 209.019,240.920 210.172,241.800 210.723 C 242.680 211.274,243.888 212.057,244.484 212.463 C 245.080 212.868,245.730 213.200,245.928 213.200 C 246.126 213.200,246.907 213.620,247.662 214.132 C 248.418 214.645,249.621 215.269,250.337 215.518 C 251.052 215.767,252.103 216.338,252.673 216.786 C 253.242 217.234,254.019 217.600,254.400 217.600 C 254.781 217.600,255.600 218.005,256.220 218.500 C 256.840 218.995,258.156 219.670,259.145 220.000 C 261.277 220.712,261.666 221.443,260.206 221.998 C 258.481 222.653,256.481 222.481,255.600 221.600 C 255.160 221.160,254.305 220.799,253.700 220.798 C 252.032 220.794,249.705 220.051,249.474 219.448 C 249.361 219.153,248.354 218.791,247.237 218.643 C 246.120 218.495,244.890 218.052,244.503 217.659 C 244.116 217.267,243.054 216.731,242.141 216.469 C 241.229 216.207,240.389 215.747,240.273 215.447 C 240.158 215.147,239.444 214.785,238.687 214.643 C 237.929 214.501,236.996 214.038,236.613 213.615 C 236.230 213.192,235.387 212.729,234.739 212.587 C 234.092 212.444,233.347 211.984,233.085 211.564 C 232.822 211.144,232.283 210.800,231.886 210.800 C 231.489 210.800,230.758 210.395,230.263 209.900 C 229.767 209.405,228.870 208.777,228.270 208.503 C 227.669 208.230,227.073 207.735,226.946 207.403 C 226.819 207.072,226.462 206.800,226.154 206.800 C 225.845 206.800,225.043 206.305,224.371 205.700 C 223.699 205.095,222.598 204.150,221.924 203.600 C 221.250 203.050,220.268 202.200,219.743 201.712 C 217.556 199.679,215.614 202.529,216.376 206.653 C 216.609 207.914,216.800 209.473,216.800 210.116 C 216.800 210.779,217.233 211.799,217.800 212.473 C 218.350 213.127,218.800 214.098,218.800 214.631 C 218.800 215.164,218.967 215.600,219.171 215.600 C 219.876 215.600,220.800 216.860,220.800 217.821 C 220.800 218.515,221.079 218.855,221.800 219.036 C 222.350 219.174,222.800 219.541,222.800 219.852 C 222.800 220.163,223.250 220.622,223.800 220.873 C 224.452 221.170,224.800 221.654,224.800 222.264 C 224.800 222.943,225.027 223.200,225.626 223.200 C 226.641 223.200,228.090 223.930,228.520 224.658 C 228.696 224.956,229.151 225.200,229.531 225.200 C 229.911 225.200,230.530 225.560,230.907 226.000 C 231.284 226.440,231.873 226.800,232.217 226.800 C 232.561 226.800,233.505 227.250,234.314 227.800 C 235.123 228.350,235.943 228.800,236.136 228.800 C 236.468 228.800,238.812 229.845,244.200 232.396 C 249.635 234.969,253.882 236.742,255.200 236.988 C 257.290 237.379,258.716 238.004,258.959 238.637 C 259.120 239.057,259.995 239.200,262.400 239.200 C 265.521 239.200,268.400 239.930,268.400 240.720 C 268.400 241.484,306.716 242.029,314.000 241.369 C 319.412 240.879,323.548 239.179,320.651 238.636 C 319.898 238.495,318.858 238.062,318.341 237.674 C 317.823 237.286,316.860 236.734,316.200 236.448 C 315.540 236.161,314.730 235.668,314.400 235.352 C 314.070 235.036,313.037 234.282,312.105 233.677 C 308.474 231.320,298.269 221.394,297.684 219.650 C 297.620 219.459,296.765 218.429,295.784 217.361 C 294.803 216.292,294.000 215.315,294.000 215.189 C 294.000 214.834,285.932 204.221,283.751 201.706 C 280.412 197.859,275.455 193.174,273.800 192.304 C 273.360 192.072,272.370 191.363,271.600 190.727 C 269.431 188.937,269.406 188.920,267.756 188.086 C 257.457 182.877,255.664 182.372,246.800 182.188 C 242.950 182.108,238.743 182.209,237.451 182.413 " stroke="none" fill="#5ca23c" fill-rule="evenodd"></path><path id="path1" d="M0.000 200.000 L 0.000 400.000 200.000 400.000 L 400.000 400.000 400.000 200.000 L 400.000 0.000 200.000 0.000 L 0.000 0.000 0.000 200.000 M279.069 78.100 C 278.812 89.946,278.123 100.686,277.461 103.200 C 277.142 104.410,276.661 107.380,276.392 109.800 C 276.122 112.220,275.727 114.650,275.512 115.200 C 275.298 115.750,274.787 117.730,274.377 119.600 C 273.228 124.834,272.387 127.959,271.361 130.800 C 270.844 132.230,270.232 134.157,270.000 135.083 C 269.768 136.009,269.423 136.862,269.233 136.979 C 269.044 137.097,268.770 137.689,268.625 138.296 C 268.332 139.525,266.469 143.694,264.914 146.600 C 264.679 147.040,264.287 147.850,264.043 148.400 C 263.151 150.415,259.124 156.555,257.484 158.400 C 257.191 158.730,256.152 159.986,255.176 161.192 C 252.816 164.104,251.817 165.093,249.200 167.103 C 247.990 168.032,246.820 168.938,246.600 169.116 C 246.380 169.294,245.570 169.791,244.800 170.220 C 244.030 170.649,242.971 171.315,242.446 171.700 C 241.921 172.085,241.194 172.400,240.831 172.400 C 240.467 172.400,239.456 172.790,238.585 173.266 C 237.222 174.011,236.130 174.166,230.800 174.366 L 224.600 174.600 224.349 179.200 C 224.211 181.730,223.973 184.099,223.820 184.464 C 223.326 185.645,224.994 185.753,226.889 184.663 C 227.830 184.121,229.207 183.552,229.949 183.397 C 230.692 183.242,231.862 182.791,232.549 182.395 C 233.304 181.960,235.109 181.564,237.102 181.395 C 238.918 181.242,240.504 180.955,240.626 180.758 C 240.911 180.297,249.083 180.287,249.368 180.748 C 249.486 180.939,251.232 181.224,253.248 181.382 C 256.743 181.656,258.800 182.188,258.800 182.819 C 258.800 182.978,259.597 183.229,260.572 183.375 C 261.546 183.521,262.761 183.965,263.272 184.362 C 263.782 184.759,264.875 185.304,265.700 185.573 C 266.525 185.842,267.200 186.209,267.200 186.388 C 267.200 186.567,267.926 187.004,268.813 187.359 C 269.701 187.714,270.530 188.273,270.656 188.602 C 270.782 188.931,271.136 189.200,271.443 189.200 C 271.749 189.200,272.346 189.546,272.770 189.970 C 273.193 190.393,273.958 190.960,274.470 191.230 C 275.400 191.721,277.296 193.435,280.931 197.069 C 285.466 201.605,286.206 202.467,289.916 207.535 C 290.292 208.049,291.005 208.880,291.500 209.381 C 291.995 209.882,292.400 210.468,292.400 210.684 C 292.400 210.900,292.778 211.418,293.241 211.837 C 293.703 212.256,294.343 213.103,294.662 213.720 C 294.981 214.338,295.548 215.188,295.921 215.610 C 296.295 216.032,297.010 216.877,297.511 217.488 C 302.061 223.040,310.630 231.600,311.639 231.600 C 311.812 231.600,312.190 231.934,312.477 232.343 C 312.765 232.751,313.390 233.208,313.867 233.359 C 314.344 233.510,315.207 234.005,315.786 234.460 C 317.296 235.649,320.295 237.157,322.518 237.846 C 324.300 238.399,325.200 239.390,325.200 240.799 C 325.200 241.517,319.149 242.361,312.299 242.597 C 307.503 242.762,304.749 243.029,303.812 243.421 C 300.520 244.796,268.869 243.324,262.400 241.494 C 261.190 241.152,258.850 240.654,257.200 240.388 C 255.550 240.122,253.750 239.676,253.200 239.398 C 252.650 239.119,251.125 238.670,249.811 238.399 C 248.497 238.128,246.790 237.567,246.017 237.153 C 245.244 236.739,244.373 236.400,244.081 236.400 C 243.563 236.400,238.798 234.312,237.600 233.560 C 237.270 233.353,236.391 232.905,235.646 232.564 C 234.901 232.223,233.821 231.628,233.246 231.242 C 227.589 227.444,228.093 227.834,224.100 224.174 C 222.725 222.913,221.600 221.751,221.600 221.591 C 221.600 221.431,220.963 220.605,220.184 219.755 C 218.469 217.882,216.125 213.711,215.648 211.683 C 214.462 206.642,213.632 205.752,211.663 207.409 C 211.049 207.925,210.049 208.473,209.441 208.625 C 208.833 208.778,208.242 209.146,208.128 209.444 C 207.875 210.104,205.525 210.795,203.524 210.798 C 202.712 210.799,201.936 210.980,201.800 211.200 C 201.664 211.420,201.035 211.600,200.402 211.600 C 199.770 211.600,198.785 211.778,198.213 211.995 C 197.216 212.374,194.714 212.010,192.600 211.178 C 192.160 211.005,190.910 210.758,189.823 210.629 C 188.663 210.491,187.494 210.064,186.997 209.597 C 185.610 208.294,184.924 208.576,184.625 210.572 C 184.479 211.546,184.035 212.761,183.638 213.272 C 183.241 213.782,182.796 214.850,182.650 215.645 C 182.504 216.440,182.044 217.398,181.628 217.775 C 181.212 218.151,180.755 218.925,180.612 219.495 C 180.351 220.535,179.352 222.034,177.731 223.818 C 177.253 224.344,176.749 225.131,176.611 225.567 C 176.472 226.003,176.028 226.464,175.623 226.593 C 175.218 226.721,174.790 227.194,174.673 227.643 C 174.555 228.092,174.103 228.553,173.667 228.667 C 173.231 228.781,172.781 229.231,172.667 229.667 C 172.553 230.103,172.103 230.553,171.667 230.667 C 171.231 230.781,170.784 231.216,170.675 231.635 C 170.566 232.054,170.168 232.514,169.793 232.658 C 169.417 232.802,168.725 233.264,168.255 233.684 C 165.662 236.000,164.551 236.800,163.925 236.800 C 163.542 236.800,163.042 237.148,162.814 237.573 C 162.587 237.998,161.996 238.470,161.500 238.623 C 161.005 238.775,160.280 239.235,159.889 239.645 C 159.498 240.055,158.688 240.506,158.089 240.648 C 157.490 240.789,156.640 241.228,156.200 241.623 C 155.760 242.018,154.860 242.468,154.200 242.623 C 153.540 242.778,152.621 243.248,152.157 243.668 C 151.694 244.088,150.631 244.543,149.795 244.678 C 148.959 244.814,147.956 245.244,147.566 245.634 C 147.177 246.023,145.990 246.468,144.929 246.622 C 143.868 246.776,142.702 247.214,142.338 247.594 C 141.973 247.974,140.936 248.404,140.032 248.548 C 139.128 248.693,138.056 249.144,137.649 249.551 C 137.242 249.958,136.210 250.420,135.355 250.578 C 134.500 250.736,133.440 251.191,133.000 251.589 C 132.560 251.988,131.634 252.433,130.941 252.579 C 130.249 252.726,129.366 253.195,128.979 253.623 C 128.593 254.050,127.969 254.400,127.593 254.400 C 127.217 254.400,126.231 254.940,125.400 255.600 C 124.569 256.260,123.654 256.800,123.365 256.800 C 123.076 256.800,122.696 257.046,122.520 257.346 C 122.344 257.646,121.660 258.168,120.999 258.505 C 120.339 258.842,119.456 259.497,119.037 259.959 C 118.618 260.422,117.944 260.800,117.538 260.800 C 117.132 260.800,116.800 261.064,116.800 261.386 C 116.800 261.708,116.395 262.187,115.900 262.450 C 114.644 263.117,110.908 267.029,110.600 267.999 C 110.461 268.439,110.189 268.800,109.998 268.800 C 109.806 268.800,109.062 269.618,108.344 270.618 L 107.039 272.435 106.336 271.118 C 105.541 269.628,105.691 265.251,106.587 263.800 C 106.859 263.360,107.291 260.780,107.547 258.067 C 107.804 255.354,108.259 252.654,108.560 252.067 C 108.861 251.480,109.313 249.434,109.566 247.519 C 109.818 245.605,110.278 243.432,110.588 242.689 C 110.898 241.947,111.366 240.094,111.627 238.570 C 111.888 237.047,112.350 235.312,112.653 234.716 C 112.956 234.119,113.462 232.407,113.777 230.910 C 114.092 229.414,114.630 227.652,114.972 226.995 C 115.315 226.338,115.713 225.180,115.857 224.423 C 116.000 223.665,116.434 222.495,116.820 221.823 C 117.206 221.150,117.651 219.985,117.807 219.234 C 117.964 218.483,118.522 217.061,119.046 216.075 C 119.571 215.088,120.000 214.020,120.000 213.702 C 120.000 213.384,120.338 212.646,120.750 212.062 C 121.163 211.478,121.627 210.417,121.781 209.705 C 121.935 208.992,122.243 208.297,122.464 208.161 C 122.685 208.024,123.211 207.167,123.632 206.256 C 124.054 205.345,124.935 203.700,125.591 202.600 C 126.247 201.500,127.156 199.970,127.612 199.200 C 129.578 195.881,130.300 194.792,132.000 192.583 C 134.490 189.347,142.627 181.165,144.753 179.759 C 145.718 179.122,147.248 178.108,148.153 177.506 C 149.059 176.905,150.070 176.300,150.400 176.163 C 150.730 176.025,151.900 175.499,153.000 174.993 C 157.910 172.735,165.485 171.786,169.019 172.986 C 171.357 173.780,171.062 174.633,171.402 166.100 L 171.692 158.800 170.430 158.800 C 169.736 158.800,168.635 159.193,167.985 159.674 C 167.168 160.278,166.034 160.604,164.318 160.728 C 162.952 160.827,161.604 161.139,161.321 161.422 C 160.126 162.617,150.100 162.676,148.286 161.498 C 147.799 161.182,145.961 160.816,144.203 160.685 C 141.637 160.494,140.874 160.284,140.339 159.623 C 139.887 159.065,139.203 158.800,138.218 158.800 C 137.200 158.800,136.464 158.500,135.764 157.800 C 135.214 157.250,134.314 156.800,133.764 156.800 C 133.214 156.800,132.314 156.350,131.764 155.800 C 131.214 155.250,130.527 154.800,130.237 154.800 C 129.947 154.800,129.031 154.260,128.200 153.600 C 127.369 152.940,126.457 152.400,126.172 152.400 C 125.887 152.400,125.545 152.058,125.413 151.640 C 125.280 151.222,124.728 150.768,124.186 150.632 C 123.644 150.496,123.200 150.114,123.200 149.782 C 123.200 149.451,122.705 148.994,122.100 148.767 C 120.823 148.287,111.200 138.631,111.200 137.830 C 111.200 137.534,110.750 136.997,110.200 136.637 C 109.650 136.276,109.200 135.728,109.200 135.418 C 109.200 135.108,108.852 134.743,108.426 134.608 C 108.000 134.473,107.595 134.117,107.526 133.817 C 107.232 132.541,95.528 120.319,91.997 117.600 C 91.283 117.050,90.263 116.195,89.731 115.700 C 89.199 115.205,88.617 114.800,88.437 114.800 C 88.257 114.800,87.431 114.260,86.600 113.600 C 85.769 112.940,84.852 112.400,84.561 112.400 C 84.269 112.400,83.709 112.073,83.316 111.673 C 82.922 111.273,81.856 110.732,80.947 110.471 C 80.039 110.210,79.079 109.736,78.815 109.418 C 78.551 109.100,77.494 108.721,76.467 108.576 C 69.662 107.618,75.070 104.391,84.808 103.599 C 87.221 103.403,90.231 102.973,91.498 102.643 C 99.262 100.623,134.066 100.725,141.800 102.792 C 143.340 103.203,145.410 103.651,146.400 103.788 C 148.976 104.144,155.061 105.938,159.000 107.504 C 160.900 108.260,164.791 110.092,167.400 111.460 C 169.091 112.347,171.644 114.023,172.666 114.918 C 173.825 115.932,175.121 115.488,175.809 113.840 C 178.903 106.435,192.413 99.681,200.429 101.531 C 201.547 101.789,202.947 102.000,203.541 102.000 C 204.135 102.000,205.696 102.534,207.010 103.187 C 208.325 103.841,209.549 104.381,209.730 104.387 C 210.112 104.402,214.213 107.535,215.400 108.719 C 215.840 109.158,217.100 110.789,218.200 112.345 C 220.621 115.769,220.085 115.753,223.531 112.500 C 227.931 108.346,231.073 105.812,232.300 105.428 C 232.796 105.273,233.387 104.798,233.614 104.373 C 233.842 103.948,234.278 103.600,234.583 103.600 C 234.889 103.600,235.660 103.162,236.296 102.626 C 236.933 102.090,237.924 101.534,238.498 101.390 C 239.072 101.246,239.636 100.884,239.750 100.586 C 239.864 100.288,240.706 99.821,241.620 99.547 C 242.535 99.273,243.370 98.821,243.477 98.544 C 243.584 98.266,244.330 97.828,245.135 97.570 C 245.941 97.312,246.960 96.784,247.400 96.397 C 247.840 96.009,248.650 95.560,249.200 95.399 C 249.750 95.237,250.503 94.840,250.872 94.516 C 251.522 93.946,252.681 93.259,255.574 91.727 C 256.330 91.327,257.349 90.640,257.839 90.200 C 258.329 89.760,259.150 89.088,259.665 88.707 C 263.396 85.940,263.834 85.594,265.236 84.300 C 265.891 83.695,266.589 83.200,266.787 83.200 C 266.984 83.200,267.257 82.849,267.394 82.420 C 267.530 81.992,267.983 81.533,268.400 81.400 C 268.817 81.267,269.267 80.817,269.400 80.400 C 269.533 79.983,269.992 79.530,270.420 79.394 C 270.849 79.257,271.200 78.916,271.200 78.635 C 271.200 78.354,271.579 77.781,272.043 77.362 C 272.506 76.943,273.230 75.925,273.651 75.100 C 274.072 74.275,274.580 73.600,274.781 73.600 C 274.982 73.600,275.267 73.195,275.415 72.700 C 275.969 70.841,276.785 70.000,278.032 70.000 L 279.246 70.000 279.069 78.100 M191.294 107.403 C 186.639 108.952,181.846 112.789,179.964 116.473 C 179.550 117.283,179.029 118.059,178.806 118.196 C 177.995 118.697,178.430 120.272,179.726 121.529 C 181.272 123.027,181.117 123.116,182.826 119.748 C 185.334 114.808,191.951 110.400,196.860 110.400 C 199.175 110.400,200.000 109.829,200.000 108.229 C 200.000 106.052,196.385 105.709,191.294 107.403 M205.728 108.460 C 203.804 109.424,203.697 112.581,205.555 113.576 C 207.842 114.800,210.000 113.670,210.000 111.248 C 210.000 108.723,207.917 107.363,205.728 108.460 M148.348 124.832 C 148.099 124.986,148.200 125.191,148.599 125.344 C 149.575 125.719,151.518 125.656,151.774 125.242 C 152.034 124.822,148.959 124.454,148.348 124.832 M152.637 126.741 C 152.466 127.016,153.054 127.353,154.217 127.646 C 155.235 127.902,156.159 128.348,156.269 128.637 C 156.380 128.925,157.066 129.358,157.794 129.598 C 158.522 129.838,159.524 130.387,160.020 130.817 C 160.516 131.248,161.175 131.600,161.484 131.600 C 161.793 131.600,163.218 132.419,164.650 133.420 C 166.082 134.421,167.735 135.423,168.322 135.646 C 168.909 135.869,169.723 136.410,170.130 136.848 C 171.111 137.901,171.772 137.622,171.924 136.092 C 172.027 135.047,171.849 134.742,170.824 134.212 C 170.151 133.864,169.600 133.418,169.600 133.222 C 169.600 133.025,169.068 132.747,168.419 132.604 C 167.769 132.461,166.824 132.026,166.319 131.636 C 165.813 131.247,164.782 130.717,164.026 130.459 C 163.270 130.201,162.370 129.745,162.026 129.446 C 161.682 129.147,160.466 128.599,159.325 128.228 C 158.184 127.856,157.193 127.380,157.123 127.169 C 156.930 126.591,152.963 126.212,152.637 126.741 M244.800 141.520 C 244.800 141.916,244.584 142.456,244.320 142.720 C 243.947 143.093,243.981 143.200,244.473 143.200 C 244.822 143.200,245.215 142.795,245.348 142.300 C 245.684 141.047,245.659 140.800,245.200 140.800 C 244.980 140.800,244.800 141.124,244.800 141.520 M242.336 144.800 C 242.044 145.460,241.579 146.000,241.302 146.000 C 241.026 146.000,240.800 146.177,240.800 146.393 C 240.800 146.762,240.144 147.579,237.500 150.502 C 236.895 151.171,236.400 151.860,236.400 152.032 C 236.400 152.205,236.040 152.460,235.600 152.600 C 235.160 152.740,234.800 153.095,234.800 153.390 C 234.800 153.684,232.529 156.219,229.754 159.023 C 224.700 164.128,223.289 166.466,224.725 167.353 C 225.377 167.757,236.990 155.936,237.565 154.284 C 237.656 154.023,238.578 152.717,239.613 151.383 C 240.649 150.048,241.615 148.583,241.760 148.127 C 241.904 147.671,242.446 146.806,242.962 146.204 C 243.514 145.563,243.820 144.799,243.704 144.356 C 243.420 143.269,242.945 143.423,242.336 144.800 M170.400 181.192 C 170.400 181.407,169.725 181.928,168.900 182.349 C 168.075 182.770,167.057 183.494,166.638 183.957 C 166.219 184.421,165.760 184.800,165.618 184.800 C 164.715 184.800,153.451 196.036,152.416 197.970 C 152.172 198.426,151.729 198.800,151.433 198.800 C 151.136 198.800,150.803 199.115,150.692 199.500 C 150.581 199.885,150.361 200.515,150.203 200.900 C 149.997 201.398,150.102 201.600,150.567 201.600 C 150.926 201.600,151.391 201.150,151.600 200.600 C 151.809 200.050,152.191 199.600,152.448 199.600 C 152.705 199.600,153.295 199.241,153.758 198.803 C 154.221 198.364,155.500 197.147,156.600 196.099 C 158.559 194.231,163.816 189.758,165.400 188.610 C 169.830 185.400,171.200 183.925,171.200 182.365 C 171.200 181.504,171.020 180.800,170.800 180.800 C 170.580 180.800,170.400 180.976,170.400 181.192 M220.800 197.595 C 220.800 198.012,220.631 198.457,220.424 198.585 C 219.784 198.981,220.766 201.056,221.820 201.536 C 222.359 201.782,222.800 202.149,222.800 202.352 C 222.800 202.555,223.385 203.096,224.100 203.554 C 224.815 204.012,226.210 205.019,227.200 205.792 C 228.190 206.565,229.367 207.359,229.816 207.557 C 230.265 207.755,230.849 208.178,231.114 208.497 C 231.379 208.815,232.316 209.402,233.198 209.799 C 234.079 210.196,234.800 210.674,234.800 210.861 C 234.800 211.047,235.045 211.200,235.344 211.200 C 235.643 211.200,236.588 211.676,237.444 212.258 C 238.300 212.840,239.559 213.471,240.242 213.661 C 240.925 213.850,241.876 214.345,242.355 214.761 C 243.284 215.567,245.756 216.198,246.407 215.796 C 247.157 215.332,246.792 214.924,245.200 214.447 C 244.320 214.184,243.600 213.804,243.600 213.603 C 243.600 213.402,242.790 212.879,241.800 212.441 C 240.810 212.003,240.000 211.455,240.000 211.222 C 240.000 210.990,239.722 210.800,239.382 210.800 C 239.042 210.800,238.355 210.395,237.856 209.900 C 237.357 209.405,236.285 208.688,235.474 208.306 C 234.663 207.925,234.000 207.430,234.000 207.206 C 234.000 206.983,233.722 206.800,233.382 206.800 C 233.042 206.800,232.314 206.350,231.764 205.800 C 231.214 205.250,230.661 204.800,230.535 204.800 C 230.409 204.800,229.652 204.264,228.853 203.609 C 228.054 202.954,226.887 202.009,226.261 201.509 C 224.248 199.903,222.724 198.622,221.750 197.718 C 220.861 196.893,220.800 196.885,220.800 197.595 M148.603 202.391 C 148.311 203.310,148.676 204.124,149.228 203.783 C 149.709 203.485,149.710 202.115,149.229 201.818 C 149.025 201.692,148.743 201.949,148.603 202.391 M146.800 205.000 C 146.800 205.330,146.980 205.600,147.200 205.600 C 147.420 205.600,147.600 205.330,147.600 205.000 C 147.600 204.670,147.420 204.400,147.200 204.400 C 146.980 204.400,146.800 204.670,146.800 205.000 M246.800 216.782 C 246.800 217.290,249.412 217.763,250.047 217.371 C 250.411 217.146,250.336 216.980,249.773 216.759 C 248.655 216.321,246.800 216.335,246.800 216.782 M252.500 219.076 C 252.885 219.176,253.515 219.176,253.900 219.076 C 254.285 218.975,253.970 218.893,253.200 218.893 C 252.430 218.893,252.115 218.975,252.500 219.076 " stroke="none" fill="#fbfbfb" fill-rule="evenodd"></path><path id="path2" d="M172.903 156.156 C 172.782 156.352,172.630 159.142,172.564 162.356 C 172.499 165.570,172.352 172.663,172.238 178.118 C 172.124 183.573,172.193 188.793,172.391 189.718 C 172.876 191.981,174.441 196.279,175.406 198.000 C 176.645 200.208,184.267 207.599,185.310 207.604 C 185.800 207.606,187.175 208.062,188.366 208.616 C 194.574 211.506,204.903 210.394,211.064 206.172 C 211.909 205.593,212.979 204.972,213.442 204.792 C 214.390 204.423,218.022 200.330,218.145 199.493 C 218.189 199.193,218.630 198.434,219.124 197.805 C 221.162 195.215,222.643 189.970,222.194 186.938 C 222.068 186.092,222.158 182.700,222.394 179.400 C 222.629 176.100,222.807 172.455,222.789 171.300 C 222.770 170.145,222.757 168.525,222.758 167.700 C 222.783 156.826,222.772 156.616,222.143 156.264 C 221.310 155.798,173.190 155.693,172.903 156.156 " stroke="none" fill="#a34de9" fill-rule="evenodd"></path><path id="path3" d="M276.103 71.500 C 275.726 72.325,274.964 73.569,274.409 74.264 C 273.854 74.960,272.950 76.178,272.400 76.971 C 271.398 78.416,265.394 84.649,264.281 85.400 C 263.258 86.090,258.244 89.943,257.266 90.791 C 256.752 91.236,256.105 91.600,255.828 91.600 C 255.551 91.600,255.004 91.953,254.614 92.385 C 254.223 92.817,253.295 93.371,252.552 93.616 C 251.808 93.861,251.200 94.226,251.200 94.426 C 251.200 94.626,250.532 95.069,249.715 95.410 C 248.898 95.751,247.953 96.280,247.615 96.584 C 247.277 96.889,246.523 97.257,245.940 97.402 C 245.356 97.548,244.532 97.990,244.109 98.385 C 243.685 98.779,242.943 99.228,242.461 99.381 C 241.978 99.534,240.461 100.364,239.091 101.225 C 237.721 102.087,235.925 103.157,235.100 103.604 C 234.275 104.051,233.600 104.580,233.600 104.781 C 233.600 104.982,233.215 105.268,232.745 105.417 C 232.275 105.566,231.150 106.258,230.245 106.953 C 221.935 113.340,219.008 117.221,220.700 119.611 C 221.336 120.510,221.411 122.201,221.522 138.200 C 221.590 147.880,221.786 155.942,221.958 156.116 C 222.958 157.123,222.655 123.005,221.626 118.642 C 221.004 116.006,225.253 111.509,233.760 105.800 C 237.180 103.505,246.806 98.036,250.206 96.456 C 251.089 96.045,252.056 95.415,252.355 95.055 C 252.653 94.695,253.101 94.397,253.349 94.393 C 253.838 94.385,256.978 92.430,258.079 91.448 C 258.452 91.115,259.307 90.558,259.979 90.211 C 260.650 89.864,261.200 89.404,261.200 89.190 C 261.200 88.975,261.430 88.800,261.711 88.800 C 262.837 88.800,272.393 79.624,274.253 76.757 C 274.880 75.791,275.518 74.906,275.671 74.792 C 275.825 74.677,276.148 74.063,276.390 73.427 C 277.422 70.712,277.669 73.060,277.490 83.854 C 277.336 93.105,277.199 94.989,276.501 97.400 C 276.039 98.998,275.563 102.255,275.392 104.989 C 275.160 108.698,274.925 110.005,274.348 110.789 C 273.806 111.523,273.529 112.837,273.335 115.590 C 273.112 118.746,272.929 119.491,272.238 120.050 C 271.551 120.607,271.384 121.274,271.262 123.961 C 271.181 125.742,270.967 127.200,270.786 127.200 C 269.810 127.200,269.200 128.585,269.200 130.801 C 269.200 132.927,269.116 133.156,268.300 133.272 C 267.532 133.381,267.382 133.679,267.278 135.300 C 267.194 136.611,266.981 137.200,266.592 137.200 C 265.982 137.200,265.200 138.393,265.200 139.323 C 265.200 139.640,263.840 141.915,262.179 144.379 C 260.517 146.844,258.974 149.252,258.751 149.730 C 258.162 150.990,257.117 152.821,256.199 154.202 C 255.760 154.863,255.220 155.700,255.000 156.063 C 253.125 159.152,250.147 163.200,249.748 163.200 C 249.477 163.200,249.198 163.603,249.128 164.096 C 249.055 164.603,248.663 165.056,248.223 165.140 C 247.795 165.222,247.123 165.698,246.729 166.199 C 246.335 166.700,245.565 167.222,245.018 167.360 C 244.471 167.497,243.832 167.967,243.597 168.405 C 243.363 168.842,242.922 169.200,242.617 169.200 C 242.311 169.200,241.553 169.625,240.931 170.144 C 240.298 170.672,238.975 171.210,237.928 171.364 C 236.899 171.516,235.610 171.991,235.065 172.420 C 232.398 174.518,221.642 172.523,224.195 170.404 C 224.528 170.128,224.800 169.674,224.800 169.394 C 224.800 169.115,225.205 168.784,225.700 168.659 C 226.195 168.533,227.950 167.057,229.600 165.377 C 231.250 163.698,233.095 161.861,233.700 161.296 C 234.305 160.730,234.800 159.959,234.800 159.581 C 234.800 159.203,235.159 158.799,235.598 158.685 C 236.037 158.570,236.513 158.171,236.656 157.798 C 236.799 157.425,237.295 156.711,237.758 156.210 C 239.975 153.812,240.800 152.743,240.800 152.265 C 240.800 151.979,241.250 151.353,241.800 150.875 C 242.350 150.397,242.800 149.805,242.800 149.560 C 242.800 149.316,243.250 148.581,243.800 147.927 C 244.350 147.273,244.800 146.510,244.800 146.231 C 244.800 145.952,245.150 145.407,245.577 145.021 C 246.005 144.634,246.466 143.811,246.602 143.192 C 246.738 142.573,247.098 141.971,247.402 141.855 C 247.706 141.738,248.186 140.872,248.468 139.931 C 248.750 138.989,249.300 137.900,249.690 137.510 C 250.081 137.119,250.400 136.350,250.400 135.800 C 250.400 135.250,250.760 134.440,251.200 134.000 C 252.130 133.070,252.255 131.110,251.428 130.423 C 250.968 130.041,250.760 130.130,250.369 130.874 C 250.102 131.383,249.369 132.391,248.741 133.114 C 248.114 133.837,247.600 134.660,247.600 134.944 C 247.600 135.228,247.150 135.883,246.600 136.400 C 246.050 136.917,245.600 137.579,245.600 137.872 C 245.600 138.165,245.150 138.797,244.600 139.275 C 244.050 139.753,243.600 140.300,243.600 140.490 C 243.600 140.680,242.700 141.917,241.600 143.238 C 240.500 144.560,239.600 145.785,239.600 145.961 C 239.600 146.137,239.105 146.814,238.500 147.465 C 237.895 148.116,236.500 149.685,235.400 150.952 C 230.458 156.645,224.981 162.000,224.100 162.000 C 223.336 162.000,223.200 162.214,223.200 163.414 C 223.200 164.696,223.274 164.789,223.986 164.408 C 225.202 163.757,234.800 153.967,234.800 153.377 C 234.800 153.089,235.160 152.740,235.600 152.600 C 236.040 152.460,236.400 152.177,236.400 151.970 C 236.400 151.764,236.850 151.203,237.400 150.725 C 237.950 150.247,238.400 149.639,238.400 149.374 C 238.400 149.109,238.836 148.606,239.370 148.257 C 239.903 147.907,240.455 147.257,240.597 146.811 C 240.738 146.365,241.068 146.000,241.329 146.000 C 241.591 146.000,242.044 145.460,242.336 144.800 C 242.945 143.423,243.420 143.269,243.704 144.356 C 243.820 144.799,243.514 145.563,242.962 146.204 C 242.446 146.806,241.904 147.671,241.760 148.127 C 241.615 148.583,240.649 150.048,239.613 151.383 C 238.578 152.717,237.656 154.023,237.565 154.284 C 237.394 154.775,233.798 158.890,230.045 162.891 C 228.860 164.154,226.934 165.925,225.765 166.827 C 222.552 169.306,221.805 173.085,224.337 174.056 C 226.383 174.840,236.766 174.267,238.585 173.269 C 239.456 172.791,240.467 172.400,240.831 172.400 C 241.194 172.400,241.921 172.085,242.446 171.700 C 242.971 171.315,244.030 170.649,244.800 170.220 C 245.570 169.791,246.380 169.294,246.600 169.116 C 246.820 168.938,247.990 168.032,249.200 167.103 C 251.817 165.093,252.816 164.104,255.176 161.192 C 256.152 159.986,257.191 158.730,257.484 158.400 C 259.124 156.555,263.151 150.415,264.043 148.400 C 264.287 147.850,264.679 147.040,264.914 146.600 C 266.469 143.694,268.332 139.525,268.625 138.296 C 268.770 137.689,269.044 137.097,269.233 136.979 C 269.423 136.862,269.768 136.009,270.000 135.083 C 270.232 134.157,270.844 132.230,271.361 130.800 C 272.387 127.959,273.228 124.834,274.377 119.600 C 274.787 117.730,275.298 115.750,275.512 115.200 C 275.727 114.650,276.122 112.220,276.392 109.800 C 276.661 107.380,277.142 104.410,277.461 103.200 C 278.751 98.305,279.654 71.322,278.556 70.518 C 277.407 69.678,276.828 69.909,276.103 71.500 M115.000 101.067 C 104.957 101.346,93.176 102.138,91.400 102.653 C 90.300 102.972,87.427 103.410,85.017 103.626 C 79.571 104.113,73.200 106.041,73.200 107.200 C 73.200 107.600,75.016 108.276,76.957 108.599 C 77.814 108.741,78.767 109.110,79.075 109.418 C 79.384 109.726,80.393 110.199,81.318 110.469 C 82.243 110.739,83.131 111.170,83.291 111.427 C 83.450 111.685,84.149 112.130,84.842 112.418 C 85.536 112.705,86.522 113.358,87.034 113.870 C 87.545 114.381,88.178 114.800,88.440 114.800 C 88.702 114.800,89.295 115.164,89.758 115.608 C 90.221 116.053,91.860 117.440,93.400 118.691 C 96.606 121.294,102.484 127.105,104.088 129.256 C 104.685 130.057,105.720 131.258,106.387 131.925 C 107.054 132.593,107.600 133.326,107.600 133.555 C 107.600 133.784,107.948 134.158,108.373 134.386 C 108.798 134.613,109.257 135.150,109.393 135.579 C 109.530 136.008,109.992 136.470,110.420 136.606 C 110.849 136.743,111.200 137.130,111.200 137.466 C 111.200 138.293,121.717 148.800,122.545 148.800 C 122.905 148.800,123.200 149.064,123.200 149.386 C 123.200 149.708,123.605 150.183,124.100 150.441 C 124.595 150.699,125.270 151.161,125.600 151.467 C 126.614 152.406,128.936 153.964,130.232 154.574 C 130.909 154.893,131.687 155.423,131.959 155.751 C 132.232 156.080,133.028 156.470,133.728 156.617 C 134.427 156.765,135.360 157.205,135.800 157.594 C 136.240 157.983,137.310 158.428,138.179 158.583 C 139.047 158.739,140.177 159.196,140.691 159.600 C 141.318 160.093,142.637 160.420,144.712 160.596 C 146.410 160.739,148.476 161.113,149.301 161.426 C 151.889 162.406,155.905 162.571,158.600 161.807 C 159.920 161.433,162.391 160.905,164.092 160.633 C 165.793 160.361,167.503 159.853,167.892 159.505 C 168.281 159.156,169.455 158.745,170.500 158.590 C 172.102 158.353,172.400 158.172,172.400 157.435 C 172.400 156.255,173.134 155.600,174.456 155.600 C 176.201 155.600,176.174 154.878,174.412 154.403 L 172.800 153.969 172.777 147.685 C 172.746 139.288,172.640 138.832,170.297 137.049 C 169.250 136.252,168.260 135.600,168.097 135.599 C 167.933 135.599,166.736 134.860,165.435 133.958 C 164.135 133.055,162.335 131.964,161.435 131.534 C 158.646 130.199,157.024 129.275,156.400 128.666 C 156.070 128.344,155.030 127.874,154.088 127.621 C 151.707 126.983,152.310 126.231,154.952 126.543 C 156.076 126.677,157.053 126.958,157.123 127.169 C 157.193 127.380,158.184 127.860,159.325 128.235 C 160.466 128.611,161.813 129.239,162.319 129.631 C 162.824 130.024,163.757 130.459,164.391 130.598 C 165.026 130.737,165.752 131.101,166.004 131.405 C 166.257 131.710,167.100 132.169,167.878 132.426 C 168.656 132.683,169.636 133.236,170.055 133.655 C 171.905 135.505,172.789 133.125,172.797 126.280 C 172.799 124.313,173.019 122.737,173.392 122.015 C 174.550 119.777,174.626 116.643,173.548 115.625 C 170.583 112.824,161.873 108.295,155.400 106.189 C 151.703 104.986,148.084 104.021,146.400 103.788 C 145.410 103.651,143.340 103.201,141.800 102.788 C 138.164 101.812,123.078 100.843,115.000 101.067 M135.405 103.700 C 135.756 104.499,136.162 104.622,139.041 104.800 C 140.823 104.910,142.533 105.208,142.841 105.461 C 143.148 105.715,145.470 106.591,148.000 107.407 C 150.530 108.224,153.177 109.241,153.881 109.667 C 154.586 110.093,157.262 111.147,159.829 112.010 C 162.396 112.872,165.115 113.943,165.871 114.389 C 166.627 114.835,167.507 115.200,167.827 115.200 C 168.146 115.200,168.716 115.560,169.093 116.000 C 169.550 116.533,170.315 116.815,171.389 116.846 C 172.275 116.872,172.685 116.975,172.300 117.076 C 171.243 117.352,171.069 118.765,171.377 124.576 C 171.673 130.166,171.395 133.448,170.726 132.253 C 170.525 131.894,170.023 131.600,169.611 131.600 C 169.199 131.600,168.327 131.150,167.673 130.600 C 167.019 130.050,166.119 129.600,165.673 129.600 C 165.227 129.600,164.327 129.150,163.673 128.600 C 163.019 128.050,162.119 127.600,161.673 127.600 C 161.227 127.600,160.353 127.173,159.731 126.651 C 159.109 126.129,157.798 125.567,156.817 125.402 C 155.837 125.237,154.577 124.780,154.017 124.387 C 153.458 123.993,152.100 123.550,151.000 123.400 C 149.900 123.251,148.675 122.838,148.277 122.482 C 147.818 122.071,146.579 121.774,144.877 121.667 C 143.405 121.574,141.845 121.251,141.411 120.949 C 140.501 120.316,139.260 120.248,138.411 120.785 C 137.918 121.097,137.950 121.203,138.611 121.442 C 139.045 121.599,139.940 122.300,140.600 122.999 C 141.440 123.890,142.326 124.354,143.554 124.549 C 144.518 124.702,145.739 125.166,146.266 125.580 C 146.792 125.995,147.924 126.452,148.780 126.597 C 149.637 126.741,150.432 127.107,150.548 127.409 C 150.664 127.711,151.498 128.157,152.401 128.400 C 153.303 128.643,154.393 129.193,154.821 129.621 C 155.249 130.049,155.960 130.400,156.400 130.400 C 156.840 130.400,157.574 130.774,158.032 131.232 C 158.490 131.690,159.435 132.254,160.132 132.487 C 160.829 132.720,161.760 133.223,162.200 133.604 C 162.640 133.985,163.472 134.545,164.050 134.848 C 166.593 136.185,167.875 136.975,168.931 137.856 C 169.553 138.375,170.298 138.800,170.588 138.800 C 171.420 138.800,171.600 139.772,171.607 144.333 C 171.611 146.680,171.783 150.202,171.989 152.161 C 172.452 156.563,172.250 156.989,169.290 157.849 C 168.031 158.215,166.640 158.748,166.200 159.035 C 163.587 160.736,149.576 161.090,144.200 159.590 C 140.942 158.681,135.172 156.386,133.200 155.215 C 128.489 152.417,126.526 151.087,124.000 148.978 C 119.665 145.360,109.386 134.570,108.200 132.393 C 107.134 130.436,96.276 119.065,93.400 116.894 C 87.305 112.294,84.847 110.674,82.354 109.614 C 81.559 109.276,80.647 108.780,80.327 108.511 C 80.007 108.243,78.800 107.820,77.645 107.572 C 75.049 107.016,75.134 106.927,78.963 106.195 C 80.657 105.870,82.348 105.446,82.721 105.251 C 83.095 105.056,85.200 104.778,87.400 104.633 C 93.148 104.255,98.938 103.532,99.380 103.139 C 99.589 102.952,107.691 102.800,117.385 102.800 L 135.010 102.800 135.405 103.700 M177.728 121.275 C 175.234 122.482,175.237 128.749,177.733 129.799 C 179.404 130.502,180.296 129.978,180.635 128.095 C 180.784 127.273,181.078 126.266,181.290 125.857 C 181.546 125.362,181.528 124.968,181.237 124.677 C 180.997 124.437,180.800 123.940,180.800 123.574 C 180.800 122.871,179.332 120.781,178.871 120.827 C 178.722 120.842,178.208 121.044,177.728 121.275 M179.200 125.449 C 179.200 127.610,179.102 128.017,178.667 127.656 C 178.248 127.308,178.220 126.739,178.534 125.007 C 179.056 122.127,179.200 122.223,179.200 125.449 M151.774 125.242 C 151.518 125.656,149.575 125.719,148.599 125.344 C 147.525 124.932,148.602 124.560,150.379 124.729 C 151.268 124.814,151.896 125.045,151.774 125.242 M245.595 141.100 C 245.575 142.146,245.013 143.200,244.473 143.200 C 243.981 143.200,243.947 143.093,244.320 142.720 C 244.584 142.456,244.800 141.916,244.800 141.520 C 244.800 141.124,244.980 140.800,245.200 140.800 C 245.420 140.800,245.598 140.935,245.595 141.100 M184.667 154.667 C 184.016 155.317,184.541 155.600,186.400 155.600 C 188.631 155.600,189.076 155.035,187.150 154.650 C 185.555 154.331,184.999 154.335,184.667 154.667 M210.800 155.200 C 210.800 155.420,211.419 155.600,212.176 155.600 C 212.933 155.600,213.664 155.420,213.800 155.200 C 213.949 154.958,213.404 154.800,212.424 154.800 C 211.531 154.800,210.800 154.980,210.800 155.200 M160.000 172.781 C 159.670 173.000,158.410 173.373,157.200 173.610 C 155.990 173.846,154.100 174.461,153.000 174.976 C 151.900 175.491,150.730 176.025,150.400 176.163 C 150.070 176.300,149.059 176.905,148.153 177.506 C 147.248 178.108,145.718 179.122,144.753 179.759 C 142.627 181.165,134.490 189.347,132.000 192.583 C 130.300 194.792,129.578 195.881,127.612 199.200 C 127.156 199.970,126.247 201.500,125.591 202.600 C 124.935 203.700,124.054 205.345,123.632 206.256 C 123.211 207.167,122.685 208.024,122.464 208.161 C 122.243 208.297,121.935 208.992,121.781 209.705 C 121.627 210.417,121.163 211.478,120.750 212.062 C 120.338 212.646,120.000 213.384,120.000 213.702 C 120.000 214.020,119.571 215.088,119.046 216.075 C 118.522 217.061,117.964 218.483,117.807 219.234 C 117.651 219.985,117.206 221.150,116.820 221.823 C 116.434 222.495,116.000 223.665,115.857 224.423 C 115.713 225.180,115.315 226.338,114.972 226.995 C 114.630 227.652,114.092 229.414,113.777 230.910 C 113.462 232.407,112.956 234.119,112.653 234.716 C 112.350 235.312,111.888 237.047,111.627 238.570 C 111.366 240.094,110.898 241.947,110.588 242.689 C 110.278 243.432,109.818 245.605,109.566 247.519 C 109.313 249.434,108.872 251.459,108.584 252.020 C 108.297 252.581,107.848 255.281,107.585 258.020 C 107.323 260.759,106.859 263.486,106.555 264.079 C 105.782 265.585,105.707 270.047,106.437 271.088 C 106.996 271.886,107.068 271.845,108.807 269.729 C 109.793 268.528,111.005 267.133,111.500 266.627 C 111.995 266.122,112.400 265.499,112.400 265.244 C 112.400 264.989,112.850 264.609,113.400 264.400 C 113.950 264.191,114.400 263.774,114.400 263.474 C 114.400 263.174,114.855 262.721,115.411 262.468 C 115.967 262.214,116.527 261.735,116.654 261.403 C 116.781 261.072,117.138 260.800,117.445 260.800 C 117.753 260.800,118.397 260.350,118.875 259.800 C 119.353 259.250,119.949 258.800,120.200 258.800 C 120.451 258.800,121.261 258.260,122.000 257.600 C 122.739 256.940,123.548 256.400,123.797 256.400 C 124.046 256.400,124.608 256.065,125.047 255.657 C 125.486 255.248,126.494 254.699,127.287 254.437 C 128.080 254.175,128.821 253.723,128.933 253.431 C 129.045 253.140,129.756 252.785,130.513 252.643 C 131.271 252.501,132.201 252.041,132.581 251.621 C 132.961 251.202,133.955 250.743,134.790 250.602 C 135.625 250.461,136.673 250.005,137.120 249.589 C 137.566 249.173,138.442 248.720,139.066 248.584 C 140.813 248.200,142.400 247.537,142.400 247.189 C 142.400 247.016,143.297 246.752,144.392 246.601 C 145.488 246.450,146.800 246.001,147.307 245.602 C 147.813 245.203,148.966 244.678,149.867 244.436 C 150.769 244.193,151.730 243.726,152.002 243.397 C 152.275 243.069,152.811 242.800,153.193 242.800 C 153.576 242.800,154.519 242.372,155.290 241.849 C 156.061 241.326,157.358 240.678,158.174 240.409 C 158.989 240.140,159.749 239.676,159.863 239.379 C 159.977 239.082,160.685 238.636,161.435 238.388 C 162.186 238.141,162.800 237.682,162.800 237.369 C 162.800 237.056,163.128 236.800,163.528 236.800 C 163.928 236.800,164.861 236.260,165.600 235.600 C 166.339 234.940,167.058 234.400,167.198 234.400 C 167.542 234.400,176.400 225.709,176.400 225.372 C 176.400 225.226,176.940 224.491,177.600 223.739 C 178.260 222.987,178.800 222.115,178.800 221.800 C 178.800 221.486,179.160 221.035,179.600 220.800 C 180.040 220.565,180.400 220.032,180.400 219.617 C 180.400 219.201,180.835 218.345,181.366 217.713 C 181.898 217.081,182.458 215.852,182.611 214.982 C 182.764 214.112,183.141 213.199,183.448 212.953 C 184.166 212.379,184.996 208.036,184.485 207.525 C 184.252 207.292,184.011 207.652,183.848 208.475 C 181.823 218.723,170.891 232.204,159.629 238.341 C 156.089 240.270,149.171 243.656,147.600 244.228 C 146.610 244.589,144.810 245.237,143.600 245.668 C 141.126 246.550,138.480 247.687,136.400 248.761 C 135.630 249.158,134.471 249.612,133.824 249.768 C 133.178 249.925,132.188 250.378,131.624 250.774 C 131.061 251.171,130.150 251.633,129.600 251.803 C 129.050 251.972,128.171 252.445,127.646 252.855 C 127.121 253.265,126.460 253.600,126.177 253.600 C 125.893 253.600,125.153 254.019,124.531 254.532 C 123.909 255.044,123.067 255.586,122.660 255.735 C 121.791 256.053,121.094 256.572,115.905 260.764 C 113.763 262.495,111.359 264.696,110.561 265.656 C 108.939 267.608,108.593 267.835,108.204 267.207 C 107.753 266.476,108.798 256.764,109.467 255.470 C 109.808 254.811,110.294 252.456,110.548 250.236 C 110.831 247.762,111.275 245.808,111.694 245.187 C 112.099 244.588,112.486 242.952,112.641 241.187 C 112.829 239.051,113.127 237.954,113.686 237.337 C 114.221 236.748,114.536 235.672,114.680 233.937 C 114.798 232.529,115.131 231.208,115.430 230.967 C 116.250 230.309,116.800 228.544,116.800 226.574 C 116.800 225.283,116.959 224.800,117.386 224.800 C 118.184 224.800,118.800 223.534,118.800 221.896 C 118.800 220.966,119.115 220.244,119.800 219.600 C 120.595 218.853,120.800 218.270,120.800 216.758 C 120.800 215.090,120.911 214.840,121.700 214.728 C 122.466 214.619,122.618 214.321,122.721 212.725 C 122.823 211.144,122.979 210.831,123.721 210.725 C 124.441 210.623,124.636 210.274,124.800 208.800 C 124.965 207.312,125.156 206.978,125.900 206.872 C 126.403 206.801,126.800 206.463,126.800 206.107 C 126.800 205.338,129.038 201.772,129.950 201.088 C 130.308 200.820,131.136 199.880,131.791 199.000 C 133.265 197.019,138.595 190.488,140.931 187.800 C 141.887 186.700,142.983 185.314,143.367 184.720 C 143.751 184.126,144.681 183.277,145.433 182.834 C 146.185 182.390,146.800 181.763,146.800 181.441 C 146.800 181.119,147.205 180.798,147.700 180.728 C 148.278 180.646,148.646 180.278,148.728 179.700 C 148.821 179.043,149.124 178.800,149.846 178.800 C 150.391 178.800,151.286 178.350,151.836 177.800 C 152.514 177.122,153.278 176.800,154.209 176.800 C 155.209 176.800,155.749 176.544,156.198 175.859 C 157.289 174.194,171.298 173.918,171.734 175.553 C 171.829 175.909,171.928 175.645,171.954 174.967 C 171.997 173.825,171.860 173.696,170.100 173.210 C 167.694 172.546,160.798 172.253,160.000 172.781 M171.600 178.600 C 171.600 178.930,171.359 179.200,171.064 179.200 C 170.770 179.200,169.862 179.695,169.046 180.300 C 166.662 182.069,161.835 186.018,161.400 186.556 C 161.180 186.827,160.668 187.174,160.262 187.327 C 159.856 187.479,159.430 187.963,159.315 188.402 C 159.201 188.841,158.924 189.200,158.701 189.200 C 158.242 189.200,153.811 193.682,151.400 196.585 C 150.520 197.645,149.396 198.981,148.903 199.556 C 147.645 201.019,146.108 203.219,145.517 204.400 C 145.242 204.950,144.786 205.545,144.505 205.722 C 144.223 205.899,143.721 206.619,143.389 207.322 C 143.057 208.025,142.489 209.140,142.126 209.800 C 140.588 212.599,140.361 213.246,140.625 214.078 C 140.895 214.929,140.912 214.924,141.463 213.874 C 141.772 213.283,142.246 212.800,142.516 212.800 C 142.785 212.800,143.815 211.888,144.803 210.774 C 145.791 209.659,147.545 207.708,148.700 206.438 C 149.855 205.167,150.800 203.850,150.800 203.510 C 150.800 203.171,151.173 202.796,151.630 202.676 C 152.086 202.557,152.553 202.103,152.667 201.667 C 152.781 201.231,153.231 200.781,153.667 200.667 C 154.103 200.553,154.557 200.086,154.676 199.630 C 154.796 199.173,155.166 198.800,155.499 198.800 C 155.832 198.800,157.060 197.855,158.229 196.700 C 159.397 195.545,160.859 194.172,161.477 193.649 C 162.094 193.125,163.253 192.135,164.051 191.449 C 164.848 190.762,165.985 189.840,166.576 189.400 C 167.167 188.960,168.042 188.240,168.520 187.800 C 169.941 186.492,171.062 186.022,171.563 186.523 C 171.879 186.839,172.000 186.612,172.000 185.704 C 172.000 183.689,171.403 183.811,168.108 186.500 C 166.399 187.895,164.550 189.321,164.000 189.669 C 163.053 190.268,156.803 195.877,152.717 199.795 C 150.763 201.669,149.692 202.139,150.203 200.900 C 150.361 200.515,150.581 199.885,150.692 199.500 C 150.803 199.115,151.136 198.800,151.433 198.800 C 151.729 198.800,152.172 198.426,152.416 197.970 C 153.451 196.036,164.715 184.800,165.618 184.800 C 165.760 184.800,166.219 184.421,166.638 183.957 C 167.057 183.494,168.053 182.782,168.851 182.374 C 169.649 181.967,170.408 181.356,170.538 181.017 C 170.668 180.678,171.051 180.400,171.387 180.400 C 171.801 180.400,172.000 180.011,172.000 179.200 C 172.000 178.540,171.910 178.000,171.800 178.000 C 171.690 178.000,171.600 178.270,171.600 178.600 M240.746 180.988 C 240.607 181.126,238.970 181.397,237.107 181.589 C 234.885 181.818,233.253 182.224,232.360 182.768 C 231.612 183.224,230.606 183.598,230.124 183.599 C 228.262 183.602,222.400 187.217,222.400 188.363 C 222.400 188.926,223.967 188.379,224.512 187.625 C 224.781 187.254,225.810 186.631,226.800 186.240 C 227.790 185.849,228.780 185.386,229.000 185.213 C 229.220 185.039,230.480 184.588,231.800 184.210 C 233.120 183.833,234.399 183.361,234.642 183.161 C 236.696 181.475,251.860 181.717,257.400 183.525 C 260.621 184.577,262.149 185.250,267.756 188.086 C 269.406 188.920,269.431 188.937,271.600 190.727 C 272.370 191.363,273.360 192.072,273.800 192.304 C 275.455 193.174,280.412 197.859,283.751 201.706 C 285.932 204.221,294.000 214.834,294.000 215.189 C 294.000 215.315,294.803 216.292,295.784 217.361 C 296.765 218.429,297.620 219.459,297.684 219.650 C 298.269 221.394,308.474 231.320,312.105 233.677 C 313.037 234.282,314.070 235.036,314.400 235.352 C 314.730 235.668,315.540 236.161,316.200 236.448 C 316.860 236.734,317.823 237.286,318.341 237.674 C 318.858 238.062,319.898 238.495,320.651 238.636 C 323.548 239.179,319.412 240.879,314.000 241.369 C 306.716 242.029,268.400 241.484,268.400 240.720 C 268.400 239.930,265.521 239.200,262.400 239.200 C 259.995 239.200,259.120 239.057,258.959 238.637 C 258.716 238.004,257.290 237.379,255.200 236.988 C 253.882 236.742,249.635 234.969,244.200 232.396 C 238.812 229.845,236.468 228.800,236.136 228.800 C 235.943 228.800,235.123 228.350,234.314 227.800 C 233.505 227.250,232.561 226.800,232.217 226.800 C 231.873 226.800,231.284 226.440,230.907 226.000 C 230.530 225.560,229.911 225.200,229.531 225.200 C 229.151 225.200,228.696 224.956,228.520 224.658 C 228.090 223.930,226.641 223.200,225.626 223.200 C 225.027 223.200,224.800 222.943,224.800 222.264 C 224.800 221.654,224.452 221.170,223.800 220.873 C 223.250 220.622,222.800 220.163,222.800 219.852 C 222.800 219.541,222.350 219.174,221.800 219.036 C 221.079 218.855,220.800 218.515,220.800 217.821 C 220.800 216.860,219.876 215.600,219.171 215.600 C 218.967 215.600,218.800 215.164,218.800 214.631 C 218.800 214.098,218.350 213.127,217.800 212.473 C 217.233 211.799,216.800 210.779,216.800 210.116 C 216.800 209.473,216.609 207.914,216.376 206.653 C 215.614 202.529,217.556 199.679,219.743 201.712 C 220.268 202.200,221.250 203.050,221.924 203.600 C 222.598 204.150,223.699 205.095,224.371 205.700 C 225.043 206.305,225.845 206.800,226.154 206.800 C 226.462 206.800,226.819 207.072,226.946 207.403 C 227.073 207.735,227.669 208.230,228.270 208.503 C 228.870 208.777,229.767 209.405,230.263 209.900 C 230.758 210.395,231.489 210.800,231.886 210.800 C 232.283 210.800,232.822 211.144,233.085 211.564 C 233.347 211.984,234.092 212.444,234.739 212.587 C 235.387 212.729,236.230 213.192,236.613 213.615 C 236.996 214.038,237.929 214.501,238.687 214.643 C 239.444 214.785,240.158 215.147,240.273 215.447 C 240.389 215.747,241.229 216.207,242.141 216.469 C 243.054 216.731,244.116 217.267,244.503 217.659 C 244.890 218.052,246.120 218.495,247.237 218.643 C 248.354 218.791,249.361 219.153,249.474 219.448 C 249.705 220.051,252.032 220.794,253.700 220.798 C 254.305 220.799,255.160 221.160,255.600 221.600 C 256.481 222.481,258.481 222.653,260.206 221.998 C 261.666 221.443,261.277 220.712,259.145 220.000 C 258.156 219.670,256.840 218.995,256.220 218.500 C 255.600 218.005,254.781 217.600,254.400 217.600 C 254.019 217.600,253.242 217.234,252.673 216.786 C 252.103 216.338,251.052 215.767,250.337 215.518 C 249.621 215.269,248.418 214.645,247.662 214.132 C 246.907 213.620,246.126 213.200,245.928 213.200 C 245.730 213.200,245.080 212.868,244.484 212.463 C 243.888 212.057,242.680 211.274,241.800 210.723 C 240.920 210.172,239.153 209.019,237.874 208.161 C 236.595 207.302,235.038 206.316,234.413 205.970 C 233.788 205.623,232.405 204.627,231.339 203.756 C 230.272 202.885,228.532 201.549,227.472 200.786 C 226.412 200.024,224.582 198.455,223.407 197.300 C 221.185 195.117,220.400 194.740,220.400 195.857 C 220.400 196.487,221.302 197.443,223.931 199.600 C 224.601 200.150,225.681 201.050,226.331 201.600 C 226.981 202.150,228.185 203.050,229.006 203.600 C 229.828 204.150,230.882 204.980,231.350 205.444 C 231.817 205.909,232.605 206.416,233.100 206.571 C 233.595 206.727,234.000 207.025,234.000 207.233 C 234.000 207.442,234.675 207.925,235.500 208.306 C 236.325 208.688,237.221 209.294,237.491 209.654 C 237.761 210.014,238.436 210.423,238.991 210.562 C 239.546 210.701,240.000 211.002,240.000 211.230 C 240.000 211.458,240.810 212.003,241.800 212.441 C 242.790 212.879,243.600 213.402,243.600 213.603 C 243.600 213.804,244.320 214.184,245.200 214.447 C 246.792 214.924,247.157 215.332,246.407 215.796 C 245.756 216.198,243.284 215.567,242.355 214.761 C 241.876 214.345,240.925 213.850,240.242 213.661 C 239.559 213.471,238.300 212.840,237.444 212.258 C 236.588 211.676,235.643 211.200,235.344 211.200 C 235.045 211.200,234.800 211.047,234.800 210.861 C 234.800 210.674,234.085 210.199,233.212 209.805 C 232.338 209.411,231.320 208.754,230.950 208.345 C 230.579 207.935,230.107 207.600,229.901 207.600 C 229.695 207.600,229.002 207.195,228.360 206.700 C 227.719 206.205,226.430 205.217,225.497 204.505 C 222.634 202.320,221.529 201.437,220.486 200.500 C 219.171 199.320,218.498 199.365,217.461 200.700 C 216.991 201.305,215.929 202.541,215.101 203.447 L 213.595 205.095 214.557 208.047 C 215.087 209.671,215.631 211.495,215.767 212.100 C 216.144 213.773,218.595 218.020,220.184 219.755 C 220.963 220.605,221.600 221.431,221.600 221.591 C 221.600 221.751,222.725 222.913,224.100 224.174 C 228.093 227.834,227.589 227.444,233.246 231.242 C 233.821 231.628,234.901 232.223,235.646 232.564 C 236.391 232.905,237.270 233.353,237.600 233.560 C 238.798 234.312,243.563 236.400,244.081 236.400 C 244.373 236.400,245.244 236.739,246.017 237.153 C 246.790 237.567,248.497 238.128,249.811 238.399 C 251.125 238.670,252.650 239.119,253.200 239.398 C 253.750 239.676,255.550 240.122,257.200 240.388 C 258.850 240.654,261.190 241.152,262.400 241.494 C 268.881 243.327,300.336 244.787,303.892 243.420 C 304.872 243.044,308.218 242.709,313.442 242.465 C 317.865 242.259,321.858 241.890,322.316 241.645 C 322.773 241.400,323.519 241.200,323.974 241.200 C 325.839 241.200,325.031 238.947,322.900 238.205 C 321.855 237.841,320.550 237.291,320.000 236.982 C 319.450 236.673,318.277 236.080,317.394 235.665 C 316.511 235.249,315.544 234.615,315.245 234.255 C 314.947 233.895,314.480 233.600,314.209 233.600 C 313.762 233.600,312.854 232.922,310.607 230.910 C 310.171 230.520,308.731 229.301,307.407 228.203 C 306.083 227.104,304.460 225.596,303.800 224.851 C 303.140 224.106,301.686 222.484,300.568 221.248 C 298.165 218.589,295.000 214.656,293.600 212.590 C 293.050 211.777,292.150 210.596,291.600 209.964 C 291.050 209.333,290.150 208.167,289.600 207.375 C 286.372 202.723,276.028 191.915,274.273 191.361 C 273.793 191.209,273.165 190.751,272.877 190.343 C 272.590 189.934,272.126 189.600,271.847 189.600 C 271.568 189.600,270.925 189.159,270.419 188.621 C 269.914 188.082,268.982 187.528,268.350 187.389 C 267.717 187.250,267.200 186.993,267.200 186.817 C 267.200 186.642,266.310 186.116,265.223 185.648 C 264.135 185.180,263.146 184.636,263.024 184.439 C 262.902 184.242,261.857 183.859,260.701 183.589 C 259.546 183.319,258.297 182.834,257.926 182.511 C 256.921 181.634,241.469 180.265,240.746 180.988 M149.600 202.800 C 149.600 203.684,148.967 204.193,148.602 203.603 C 148.249 203.033,148.775 201.537,149.229 201.818 C 149.433 201.944,149.600 202.386,149.600 202.800 M147.600 204.976 C 147.600 205.293,147.420 205.664,147.200 205.800 C 146.980 205.936,146.800 205.677,146.800 205.224 C 146.800 204.771,146.980 204.400,147.200 204.400 C 147.420 204.400,147.600 204.659,147.600 204.976 M249.773 216.759 C 250.336 216.980,250.411 217.146,250.047 217.371 C 249.412 217.763,246.800 217.290,246.800 216.782 C 246.800 216.335,248.655 216.321,249.773 216.759 M253.900 219.076 C 253.515 219.176,252.885 219.176,252.500 219.076 C 252.115 218.975,252.430 218.893,253.200 218.893 C 253.970 218.893,254.285 218.975,253.900 219.076 " stroke="none" fill="#adcf9d" fill-rule="evenodd"></path><path id="path4" d="M192.766 101.770 C 187.261 102.740,183.268 105.062,178.835 109.873 C 177.276 111.565,176.000 113.186,176.000 113.475 C 176.000 113.764,175.616 114.384,175.146 114.854 C 174.485 115.515,174.272 116.264,174.206 118.157 C 174.160 119.503,173.848 121.144,173.514 121.803 C 173.108 122.604,172.835 124.714,172.692 128.177 C 172.519 132.367,172.352 133.446,171.815 133.838 C 171.391 134.149,171.305 134.417,171.576 134.585 C 171.809 134.729,172.000 135.366,172.000 136.000 C 172.000 136.634,171.809 137.271,171.576 137.415 C 171.309 137.580,171.419 137.872,171.875 138.205 C 172.519 138.676,172.614 139.567,172.742 146.363 L 172.886 153.992 174.455 154.415 C 175.318 154.647,175.930 154.990,175.814 155.177 C 175.450 155.766,176.756 156.000,180.419 156.000 C 183.626 156.000,184.016 155.918,184.424 155.155 C 184.925 154.218,187.867 154.337,188.473 155.319 C 188.984 156.147,210.326 156.257,210.642 155.434 C 210.808 155.003,211.393 154.800,212.466 154.800 C 213.336 154.800,213.944 154.967,213.818 155.171 C 213.535 155.629,217.170 156.107,219.600 155.931 L 221.400 155.800 221.400 138.200 C 221.400 122.082,221.341 120.517,220.700 119.611 C 219.405 117.781,219.773 116.728,222.788 113.640 C 224.322 112.069,225.267 110.955,224.888 111.164 C 224.510 111.372,223.433 112.366,222.496 113.371 C 220.365 115.659,220.580 115.710,218.200 112.345 C 217.100 110.789,215.840 109.158,215.400 108.719 C 214.181 107.504,210.105 104.400,209.727 104.400 C 209.544 104.400,208.512 103.931,207.434 103.357 C 204.164 101.616,197.644 100.910,192.766 101.770 M199.367 106.643 C 201.579 107.492,199.639 110.400,196.860 110.400 C 191.931 110.400,185.355 114.840,182.644 120.000 C 181.893 121.430,181.099 122.561,180.880 122.514 C 180.432 122.416,180.719 123.948,181.286 124.674 C 181.512 124.965,181.511 125.429,181.280 125.874 C 181.074 126.273,180.784 127.273,180.635 128.095 C 180.296 129.978,179.404 130.502,177.733 129.799 C 175.205 128.736,175.238 122.440,177.778 121.283 C 178.495 120.956,178.656 120.629,178.501 119.817 C 178.383 119.200,178.548 118.491,178.902 118.086 C 179.233 117.709,179.777 116.860,180.111 116.200 C 183.107 110.279,194.329 104.710,199.367 106.643 M209.500 109.082 C 210.202 110.023,210.124 112.619,209.371 113.371 C 208.044 114.699,205.063 113.944,204.363 112.102 C 203.246 109.164,207.637 106.582,209.500 109.082 M170.942 158.684 C 171.644 158.865,171.668 159.269,171.393 166.237 C 171.191 171.351,171.232 173.600,171.528 173.600 C 172.249 173.600,172.301 173.215,172.601 165.700 L 172.892 158.400 171.546 158.446 C 170.788 158.473,170.524 158.576,170.942 158.684 M148.176 161.413 C 148.604 161.736,149.324 161.993,149.776 161.984 C 150.384 161.973,150.247 161.815,149.254 161.384 C 147.558 160.648,147.179 160.658,148.176 161.413 M160.000 161.454 C 158.787 161.888,158.734 161.957,159.600 161.971 C 160.150 161.980,160.865 161.820,161.188 161.616 C 162.153 161.006,161.501 160.917,160.000 161.454 M223.739 164.471 C 222.769 164.940,222.095 167.926,222.710 169.025 C 223.266 170.019,224.478 167.873,224.563 165.743 C 224.601 164.784,224.625 164.012,224.616 164.027 C 224.607 164.042,224.212 164.242,223.739 164.471 M222.631 174.946 C 222.519 175.856,222.316 178.965,222.180 181.856 C 221.907 187.642,222.164 188.403,223.796 186.642 C 224.551 185.827,224.636 185.548,224.203 185.305 C 223.779 185.068,223.735 184.592,224.010 183.199 C 224.832 179.044,224.682 174.163,223.718 173.708 C 222.895 173.320,222.821 173.404,222.631 174.946 M171.180 182.286 C 171.449 184.629,172.200 184.643,172.200 182.305 C 172.200 181.093,172.024 180.577,171.580 180.492 C 171.066 180.393,170.998 180.700,171.180 182.286 M240.662 180.700 C 240.560 180.865,242.512 181.000,245.000 181.000 C 247.488 181.000,249.440 180.865,249.338 180.700 C 249.236 180.535,247.284 180.400,245.000 180.400 C 242.716 180.400,240.764 180.535,240.662 180.700 M251.505 181.483 C 252.002 181.579,252.722 181.575,253.105 181.475 C 253.487 181.375,253.080 181.296,252.200 181.301 C 251.320 181.305,251.007 181.387,251.505 181.483 M219.060 197.828 L 217.962 199.205 219.007 199.603 C 220.389 200.128,220.527 200.107,220.260 199.413 C 220.136 199.090,220.207 198.719,220.417 198.589 C 220.881 198.303,220.925 196.925,220.480 196.649 C 220.303 196.540,219.665 197.071,219.060 197.828 M211.275 206.020 C 204.970 210.387,194.677 211.554,188.366 208.616 C 185.891 207.464,184.800 207.337,184.800 208.200 C 184.800 208.530,185.103 208.800,185.474 208.800 C 185.845 208.800,186.530 209.159,186.997 209.597 C 187.494 210.064,188.663 210.491,189.823 210.629 C 190.910 210.758,192.160 211.005,192.600 211.178 C 194.714 212.010,197.216 212.374,198.213 211.995 C 198.785 211.778,199.770 211.600,200.402 211.600 C 201.035 211.600,201.664 211.420,201.800 211.200 C 201.936 210.980,202.712 210.799,203.524 210.798 C 205.525 210.795,207.875 210.104,208.128 209.444 C 208.242 209.146,208.833 208.778,209.441 208.625 C 210.049 208.473,211.058 207.917,211.684 207.391 C 212.310 206.864,213.087 206.535,213.411 206.660 C 214.036 206.899,214.156 206.472,213.757 205.433 C 213.435 204.592,213.286 204.627,211.275 206.020 M179.377 220.967 C 178.950 221.279,178.707 221.640,178.836 221.770 C 178.966 221.899,179.398 221.644,179.798 221.202 C 180.648 220.263,180.473 220.166,179.377 220.967 " stroke="none" fill="#ebc3fa" fill-rule="evenodd"></path></g></svg>