<svg xmlns="http://www.w3.org/2000/svg" xmlns:xlink="http://www.w3.org/1999/xlink" width="500" zoomAndPan="magnify" viewBox="0 0 375 374.999991" height="500" preserveAspectRatio="xMidYMid meet" version="1.0"><defs><clipPath id="ed4ba93117"><path d="M 136 131.167969 L 208 131.167969 L 208 183 L 136 183 Z M 136 131.167969 " clip-rule="nonzero"/></clipPath><clipPath id="8abde3487b"><path d="M 134 179 L 221 179 L 221 221.917969 L 134 221.917969 Z M 134 179 " clip-rule="nonzero"/></clipPath></defs><path fill="#498536" d="M 173.566406 204.589844 C 172.066406 206.339844 172.261719 208.976562 174.003906 210.480469 C 175.75 211.984375 178.382812 211.789062 179.882812 210.039062 L 198.652344 188.191406 C 194.21875 188.742188 190.277344 189.136719 186.625 189.390625 L 173.566406 204.589844 " fill-opacity="1" fill-rule="nonzero"/><path fill="#498536" d="M 161.765625 199.730469 C 162.140625 200.144531 163.847656 194.605469 165.070312 189.242188 C 164.179688 189.175781 163.292969 189.097656 162.40625 189.019531 C 161.730469 194.359375 161.410156 199.925781 161.765625 199.730469 " fill-opacity="1" fill-rule="nonzero"/><path fill="#498536" d="M 218.257812 158.835938 C 214.222656 155.417969 208.183594 155.890625 204.730469 159.910156 C 202.230469 162.820312 201.765625 166.792969 203.203125 170.089844 L 192.613281 182.421875 C 196.914062 182.214844 200.882812 181.835938 204.589844 181.28125 L 209.519531 175.539062 C 213.03125 176.488281 216.941406 175.398438 219.433594 172.402344 C 222.816406 168.34375 222.285156 162.246094 218.257812 158.835938 " fill-opacity="1" fill-rule="nonzero"/><g clip-path="url(#ed4ba93117)"><path fill="#498536" d="M 178.292969 162.097656 C 178.292969 162.097656 178.296875 162.097656 178.296875 162.101562 C 179.320312 161.105469 180.390625 160.15625 181.507812 159.25 C 182.589844 156.632812 183.789062 153.996094 185.105469 151.339844 C 185.5 150.546875 185.902344 149.761719 186.3125 148.976562 C 184.773438 152.242188 183.414062 155.480469 182.234375 158.675781 C 183.679688 157.546875 185.199219 156.5 186.785156 155.542969 C 187.351562 153.835938 188.019531 152.140625 188.792969 150.472656 C 189.015625 149.988281 189.25 149.511719 189.488281 149.039062 C 188.625 151.070312 187.917969 153.128906 187.355469 155.199219 C 188.964844 154.253906 190.648438 153.398438 192.390625 152.636719 C 193.101562 151.390625 193.804688 150.050781 194.683594 148.921875 C 194.9375 148.59375 195.195312 148.277344 195.457031 147.96875 C 194.445312 149.386719 193.558594 150.890625 192.789062 152.46875 C 194.660156 151.671875 196.601562 150.988281 198.613281 150.421875 C 199.125 150.28125 199.640625 150.144531 200.152344 150.019531 C 198.933594 150.40625 197.742188 150.835938 196.574219 151.308594 C 197.976562 151.183594 199.394531 151.128906 200.824219 151.148438 C 201.320312 151.152344 201.8125 151.167969 202.304688 151.191406 C 199.980469 151.242188 197.699219 151.355469 195.460938 151.777344 C 193.671875 152.558594 191.949219 153.4375 190.304688 154.410156 C 192.171875 154.40625 194.066406 154.480469 195.984375 154.636719 C 196.628906 154.691406 197.265625 154.753906 197.902344 154.820312 C 195.039062 154.667969 192.234375 154.695312 189.5 154.894531 C 187.953125 155.851562 186.472656 156.886719 185.0625 158 C 187.957031 158.242188 190.910156 158.59375 193.921875 159.046875 C 194.832031 159.183594 195.742188 159.332031 196.648438 159.488281 C 192.476562 158.941406 188.417969 158.601562 184.488281 158.460938 C 182.566406 160.023438 180.777344 161.730469 179.136719 163.554688 C 212.320312 168.925781 207.09375 143.191406 207.09375 143.191406 C 172.214844 145.527344 175.46875 156.945312 177.753906 161.179688 C 173.277344 164.976562 169.605469 169.53125 166.839844 174.558594 C 166.746094 172.265625 166.699219 168.941406 166.917969 167.769531 C 167.015625 167.25 167.136719 166.726562 167.28125 166.214844 C 167.050781 165.1875 166.847656 164.128906 166.679688 163.039062 C 166.648438 162.835938 166.617188 162.632812 166.589844 162.429688 C 165.46875 165.28125 165.765625 167.214844 166.554688 167.609375 C 166.207031 168.960938 165.925781 172.332031 165.851562 174.660156 C 165.039062 169.03125 163.226562 163.523438 160.414062 158.425781 C 164.050781 155.28125 171.132812 145.765625 139.359375 131.167969 C 139.359375 131.167969 125.355469 153.363281 158.277344 160.15625 C 157.390625 157.863281 156.324219 155.632812 155.082031 153.484375 C 151.355469 152.21875 147.441406 151.089844 143.347656 150.117188 C 144.25 150.296875 145.152344 150.480469 146.054688 150.675781 C 149.027344 151.324219 151.914062 152.050781 154.707031 152.851562 C 153.785156 151.308594 152.765625 149.8125 151.660156 148.371094 C 149.171875 147.210938 146.5625 146.183594 143.832031 145.3125 C 144.449219 145.472656 145.070312 145.640625 145.6875 145.820312 C 147.535156 146.359375 149.335938 146.964844 151.082031 147.628906 C 149.882812 146.132812 148.585938 144.699219 147.191406 143.335938 C 145.246094 142.144531 143.15625 141.226562 141.003906 140.351562 C 141.46875 140.503906 141.933594 140.664062 142.398438 140.835938 C 143.742188 141.328125 145.046875 141.882812 146.316406 142.5 C 145.394531 141.640625 144.429688 140.816406 143.425781 140.019531 C 143.863281 140.320312 144.292969 140.628906 144.722656 140.945312 C 146.402344 142.1875 147.976562 143.519531 149.445312 144.929688 C 149.285156 143.183594 148.988281 141.457031 148.542969 139.773438 C 148.679688 140.15625 148.808594 140.546875 148.929688 140.941406 C 149.351562 142.308594 149.535156 143.808594 149.753906 145.230469 C 151.117188 146.5625 152.382812 147.960938 153.554688 149.417969 C 153.765625 147.28125 153.832031 145.101562 153.746094 142.898438 C 153.800781 143.425781 153.847656 143.953125 153.886719 144.488281 C 154.019531 146.324219 154.042969 148.144531 153.96875 149.941406 C 155.113281 151.402344 156.160156 152.921875 157.113281 154.488281 C 157.140625 151.082031 157.019531 147.570312 156.734375 143.972656 C 156.839844 144.847656 156.9375 145.730469 157.023438 146.609375 C 157.316406 149.5625 157.503906 152.457031 157.585938 155.285156 C 158.308594 156.527344 158.972656 157.796875 159.578125 159.09375 C 159.582031 159.09375 159.582031 159.089844 159.585938 159.089844 C 162.75 165.878906 164.238281 173.265625 164.039062 180.625 C 163.894531 181.003906 163.753906 181.46875 163.617188 182 C 164.199219 182.03125 164.785156 182.058594 165.382812 182.082031 L 166.078125 182.113281 C 166.152344 182.113281 166.230469 182.117188 166.304688 182.121094 C 166.332031 181.742188 166.347656 181.398438 166.34375 181.09375 C 168.746094 173.96875 172.8125 167.429688 178.292969 162.097656 " fill-opacity="1" fill-rule="nonzero"/></g><path fill="#498536" d="M 166.539062 162.058594 C 166.554688 162.183594 166.570312 162.304688 166.589844 162.429688 C 166.59375 162.417969 166.597656 162.410156 166.601562 162.402344 C 166.578125 162.289062 166.558594 162.175781 166.539062 162.058594 " fill-opacity="1" fill-rule="nonzero"/><path fill="#5ab334" d="M 168.089844 163.949219 C 167.894531 163.3125 167.734375 162.652344 167.613281 161.980469 C 167.578125 161.785156 167.542969 161.589844 167.515625 161.394531 C 167.691406 162.195312 167.914062 162.972656 168.1875 163.726562 C 168.476562 163.089844 168.800781 162.46875 169.167969 161.863281 C 169.117188 161.332031 169.042969 160.773438 169.066406 160.242188 C 169.074219 160.085938 169.085938 159.933594 169.097656 159.785156 C 169.09375 160.433594 169.148438 161.082031 169.253906 161.726562 C 169.648438 161.082031 170.09375 160.453125 170.582031 159.851562 C 170.707031 159.695312 170.835938 159.546875 170.964844 159.394531 C 170.675781 159.773438 170.40625 160.164062 170.152344 160.558594 C 170.554688 160.21875 170.972656 159.894531 171.410156 159.59375 C 171.5625 159.488281 171.714844 159.386719 171.867188 159.289062 C 171.171875 159.804688 170.507812 160.332031 169.917969 160.941406 C 169.539062 161.5625 169.207031 162.199219 168.914062 162.851562 C 169.480469 162.449219 170.074219 162.0625 170.6875 161.695312 C 170.894531 161.574219 171.101562 161.453125 171.308594 161.339844 C 170.40625 161.910156 169.5625 162.519531 168.773438 163.171875 C 168.511719 163.792969 168.28125 164.425781 168.09375 165.070312 C 169.023438 164.519531 169.996094 163.988281 171.007812 163.480469 C 171.3125 163.324219 171.621094 163.171875 171.929688 163.023438 C 170.546875 163.757812 169.242188 164.527344 168.015625 165.332031 C 167.769531 166.21875 167.59375 167.125 167.484375 168.03125 C 178.710938 162.515625 175.46875 151.480469 175.46875 151.480469 C 170.382812 155.625 167.753906 159.488281 166.601562 162.402344 C 166.820312 163.601562 167.082031 164.765625 167.378906 165.882812 C 167.578125 165.230469 167.8125 164.585938 168.089844 163.949219 " fill-opacity="1" fill-rule="nonzero"/><g clip-path="url(#8abde3487b)"><path fill="#498536" d="M 177.257812 217.996094 C 156.929688 217.996094 140.261719 203.109375 137.597656 183.394531 C 137.84375 185.210938 142.203125 185.464844 143.488281 185.632812 C 152.6875 186.859375 161.910156 188.039062 171.1875 188.476562 C 180.464844 188.914062 189.601562 188.160156 198.804688 187.011719 C 203.945312 186.367188 209.078125 185.644531 214.226562 185.039062 C 215.382812 184.902344 216.832031 184.488281 216.957031 183.328125 C 215.625 195.925781 206.445312 208.152344 195.332031 213.742188 C 189.738281 216.554688 183.511719 217.996094 177.257812 217.996094 Z M 220.289062 180.621094 C 220.117188 179.898438 219.710938 179.390625 218.929688 179.300781 C 218.390625 179.242188 217.855469 179.414062 217.339844 179.578125 C 200.78125 184.789062 182.472656 183.945312 165.335938 183.234375 C 155.554688 182.828125 145.714844 181.871094 136.257812 179.238281 C 136.140625 179.207031 136.023438 179.1875 135.90625 179.183594 C 135.851562 179.179688 135.796875 179.175781 135.738281 179.179688 C 134.871094 179.207031 134.199219 179.953125 134.257812 180.820312 C 134.257812 180.839844 134.257812 180.855469 134.261719 180.875 C 134.261719 180.875 134.261719 180.878906 134.257812 180.882812 C 134.257812 180.953125 134.265625 181.019531 134.277344 181.085938 C 134.640625 186.109375 135.867188 190.972656 137.929688 195.566406 C 140.167969 200.558594 143.296875 205.03125 147.230469 208.859375 C 150.988281 212.519531 155.304688 215.414062 159.976562 217.46875 C 160.691406 217.777344 160.472656 218.84375 159.695312 218.84375 L 159.695312 221.917969 L 194.359375 221.917969 L 194.359375 218.84375 C 193.6875 218.84375 193.492188 217.914062 194.113281 217.648438 C 198.949219 215.589844 203.414062 212.628906 207.285156 208.859375 C 211.21875 205.03125 214.347656 200.558594 216.585938 195.566406 C 217.847656 192.75 218.808594 189.800781 219.441406 186.777344 C 219.671875 185.664062 220.738281 182.453125 220.289062 180.621094 " fill-opacity="1" fill-rule="nonzero"/></g></svg>